<svg class="img-fluid" id="outputsvg" xmlns="http://www.w3.org/2000/svg"  width="800" height="600" viewBox="0 0 8000 6000"><g id="l74Ue7Ob1qSP12bJTHHLZ2l" fill="rgb(106,103,96)" style="transform: none;"><g style="transform: none;"><path id="pWLLuJOmU" d="M3915 4750 l-600 -5 -85 -29 c-299 -100 -532 -303 -656 -572 -167 -360 -84 -804 257 -1386 263 -449 361 -634 379 -723 33 -160 -52 -302 -199 -334 -57 -12 -101 -3 -171 35 -67 36 -113 98 -142 189 -28 86 -30 259 -5 405 9 52 14 96 12 98 -9 9 -109 -131 -145 -203 -163 -326 -93 -719 173 -972 132 -126 289 -200 474 -224 269 -36 595 94 754 300 201 261 198 568 -9 861 -91 129 -324 352 -622 596 -293 239 -397 345 -488 494 -140 232 -163 513 -62 766 43 109 88 175 189 274 73 73 102 94 191 138 121 60 174 72 315 72 345 0 628 -232 710 -582 19 -83 -2 -70 -29 18 -49 154 -151 289 -286 379 -208 139 -482 143 -699 11 -230 -141 -351 -478 -275 -770 57 -220 216 -415 550 -674 298 -231 468 -397 732 -715 63 -75 120 -137 127 -137 18 0 27 32 27 90 l0 48 67 31 c212 99 283 185 317 384 20 123 13 145 -63 194 -85 54 -124 64 -258 65 -66 1 -130 -2 -142 -6 -37 -12 -26 7 19 34 72 43 160 140 251 277 135 204 241 297 394 349 35 12 66 24 69 27 12 12 -76 31 -136 30 -110 -2 -192 -40 -390 -182 -204 -148 -294 -181 -506 -188 -167 -6 -257 12 -394 79 -68 34 -103 60 -176 133 -74 73 -98 106 -132 175 -23 47 -49 112 -57 145 -17 68 -20 145 -5 145 6 0 10 -12 10 -27 0 -46 27 -132 62 -201 139 -272 436 -405 774 -347 103 18 226 72 292 130 88 76 167 199 203 315 21 64 24 95 24 215 -1 126 -4 148 -28 218 -34 97 -77 165 -152 240 -32 32 -56 59 -54 61 2 2 29 16 59 31 80 40 123 77 154 134 31 58 32 96 1 96 -11 1 -290 -2 -620 -5z"></path>
</g></g></svg>